<mxfile host="Electron" modified="2024-05-03T09:29:28.365Z" agent="Mozilla/5.0 (X11; Linux x86_64) AppleWebKit/537.36 (KHTML, like Gecko) draw.io/24.2.5 Chrome/120.0.6099.109 Electron/28.1.0 Safari/537.36" etag="ncCcxPIFgXY_xLatMQCN" version="24.2.5" type="device">
  <diagram id="C5RBs43oDa-KdzZeNtuy" name="Page-1">
    <mxGraphModel dx="3342" dy="2338" grid="1" gridSize="10" guides="1" tooltips="1" connect="1" arrows="1" fold="1" page="1" pageScale="1" pageWidth="827" pageHeight="1169" math="0" shadow="0">
      <root>
        <mxCell id="WIyWlLk6GJQsqaUBKTNV-0" />
        <mxCell id="WIyWlLk6GJQsqaUBKTNV-1" parent="WIyWlLk6GJQsqaUBKTNV-0" />
        <mxCell id="k4mGKkieQnS2HrGEvZ-L-0" value="&lt;b&gt;&amp;nbsp; &amp;nbsp; &amp;nbsp; &amp;nbsp; &amp;nbsp; ENTER LOGIN CREDENTIAL&lt;/b&gt;" style="rounded=1;whiteSpace=wrap;html=1;fillColor=#fff2cc;strokeColor=#d6b656;gradientColor=#ffd966;shadow=1;" parent="WIyWlLk6GJQsqaUBKTNV-1" vertex="1">
          <mxGeometry x="80" y="40" width="250" height="60" as="geometry" />
        </mxCell>
        <mxCell id="k4mGKkieQnS2HrGEvZ-L-2" value="&lt;b&gt;&amp;nbsp; &amp;nbsp; &amp;nbsp; &amp;nbsp; VERIFY&amp;nbsp; LOGIN CREDENTIAL&lt;/b&gt;" style="rounded=1;whiteSpace=wrap;html=1;fillColor=#fff2cc;strokeColor=#d6b656;shadow=1;" parent="WIyWlLk6GJQsqaUBKTNV-1" vertex="1">
          <mxGeometry x="790" y="40" width="270" height="60" as="geometry" />
        </mxCell>
        <mxCell id="k4mGKkieQnS2HrGEvZ-L-75" style="edgeStyle=orthogonalEdgeStyle;rounded=0;orthogonalLoop=1;jettySize=auto;html=1;shadow=1;strokeWidth=3;" parent="WIyWlLk6GJQsqaUBKTNV-1" source="k4mGKkieQnS2HrGEvZ-L-3" edge="1">
          <mxGeometry relative="1" as="geometry">
            <mxPoint x="99.99999999999977" y="1100" as="targetPoint" />
          </mxGeometry>
        </mxCell>
        <mxCell id="k4mGKkieQnS2HrGEvZ-L-3" value="&lt;b&gt;LOGOUT&lt;/b&gt;" style="rounded=1;whiteSpace=wrap;html=1;fillColor=#d5e8d4;gradientColor=#97d077;strokeColor=#82b366;shadow=1;" parent="WIyWlLk6GJQsqaUBKTNV-1" vertex="1">
          <mxGeometry x="40" y="1005" width="120" height="60" as="geometry" />
        </mxCell>
        <mxCell id="k4mGKkieQnS2HrGEvZ-L-4" value="" style="rhombus;whiteSpace=wrap;html=1;fillColor=#f5f5f5;gradientColor=#b3b3b3;strokeColor=#666666;shadow=1;" parent="WIyWlLk6GJQsqaUBKTNV-1" vertex="1">
          <mxGeometry x="905" y="150" width="40" height="40" as="geometry" />
        </mxCell>
        <mxCell id="k4mGKkieQnS2HrGEvZ-L-16" value="" style="ellipse;whiteSpace=wrap;html=1;aspect=fixed;fillColor=#ffcd28;strokeColor=#d79b00;gradientColor=#ffa500;shadow=1;" parent="WIyWlLk6GJQsqaUBKTNV-1" vertex="1">
          <mxGeometry x="747" y="30" width="80" height="80" as="geometry" />
        </mxCell>
        <mxCell id="k4mGKkieQnS2HrGEvZ-L-18" value="" style="ellipse;whiteSpace=wrap;html=1;aspect=fixed;fillColor=#ffcd28;gradientColor=#ffa500;strokeColor=#d79b00;shadow=1;" parent="WIyWlLk6GJQsqaUBKTNV-1" vertex="1">
          <mxGeometry x="40" y="30" width="80" height="80" as="geometry" />
        </mxCell>
        <mxCell id="k4mGKkieQnS2HrGEvZ-L-19" value="" style="endArrow=classic;html=1;rounded=0;exitX=1;exitY=0.5;exitDx=0;exitDy=0;entryX=0;entryY=0.5;entryDx=0;entryDy=0;shadow=1;strokeWidth=3;" parent="WIyWlLk6GJQsqaUBKTNV-1" source="k4mGKkieQnS2HrGEvZ-L-0" target="k4mGKkieQnS2HrGEvZ-L-16" edge="1">
          <mxGeometry width="50" height="50" relative="1" as="geometry">
            <mxPoint x="430" y="320" as="sourcePoint" />
            <mxPoint x="480" y="270" as="targetPoint" />
          </mxGeometry>
        </mxCell>
        <mxCell id="k4mGKkieQnS2HrGEvZ-L-20" value="" style="endArrow=classic;html=1;rounded=0;exitX=0.5;exitY=1;exitDx=0;exitDy=0;entryX=0.5;entryY=0;entryDx=0;entryDy=0;shadow=1;strokeWidth=3;" parent="WIyWlLk6GJQsqaUBKTNV-1" source="k4mGKkieQnS2HrGEvZ-L-2" target="k4mGKkieQnS2HrGEvZ-L-4" edge="1">
          <mxGeometry width="50" height="50" relative="1" as="geometry">
            <mxPoint x="610" y="300" as="sourcePoint" />
            <mxPoint x="660" y="250" as="targetPoint" />
          </mxGeometry>
        </mxCell>
        <mxCell id="k4mGKkieQnS2HrGEvZ-L-21" value="" style="endArrow=classic;html=1;rounded=0;exitX=0;exitY=0.5;exitDx=0;exitDy=0;entryX=0.5;entryY=0;entryDx=0;entryDy=0;shadow=1;strokeWidth=3;" parent="WIyWlLk6GJQsqaUBKTNV-1" source="k4mGKkieQnS2HrGEvZ-L-4" target="k4mGKkieQnS2HrGEvZ-L-3" edge="1">
          <mxGeometry width="50" height="50" relative="1" as="geometry">
            <mxPoint x="610" y="300" as="sourcePoint" />
            <mxPoint x="660" y="250" as="targetPoint" />
            <Array as="points">
              <mxPoint x="100" y="170" />
            </Array>
          </mxGeometry>
        </mxCell>
        <mxCell id="k4mGKkieQnS2HrGEvZ-L-24" value="&lt;b&gt;ENTER SOURSE, DESTINATION, AND TIME TO&amp;nbsp;&lt;/b&gt;&lt;div&gt;&lt;b&gt;FIND BUSES&amp;nbsp;&lt;/b&gt;&lt;/div&gt;" style="rounded=1;whiteSpace=wrap;html=1;fillColor=#fff2cc;strokeColor=#d6b656;gradientColor=#ffd966;shadow=1;" parent="WIyWlLk6GJQsqaUBKTNV-1" vertex="1">
          <mxGeometry x="330" y="300" width="350" height="60" as="geometry" />
        </mxCell>
        <mxCell id="k4mGKkieQnS2HrGEvZ-L-25" value="" style="ellipse;whiteSpace=wrap;html=1;aspect=fixed;fillColor=#ffcd28;strokeColor=#d79b00;gradientColor=#ffa500;shadow=1;" parent="WIyWlLk6GJQsqaUBKTNV-1" vertex="1">
          <mxGeometry x="280" y="290" width="80" height="80" as="geometry" />
        </mxCell>
        <mxCell id="k4mGKkieQnS2HrGEvZ-L-26" value="" style="endArrow=classic;html=1;rounded=0;entryX=0.516;entryY=-0.001;entryDx=0;entryDy=0;entryPerimeter=0;shadow=1;strokeWidth=3;" parent="WIyWlLk6GJQsqaUBKTNV-1" target="k4mGKkieQnS2HrGEvZ-L-24" edge="1">
          <mxGeometry width="50" height="50" relative="1" as="geometry">
            <mxPoint x="920" y="250" as="sourcePoint" />
            <mxPoint x="510" y="300" as="targetPoint" />
            <Array as="points">
              <mxPoint x="510" y="250" />
            </Array>
          </mxGeometry>
        </mxCell>
        <mxCell id="k4mGKkieQnS2HrGEvZ-L-27" value="" style="endArrow=classic;html=1;rounded=0;exitX=0.5;exitY=1;exitDx=0;exitDy=0;shadow=1;strokeWidth=3;" parent="WIyWlLk6GJQsqaUBKTNV-1" source="k4mGKkieQnS2HrGEvZ-L-4" edge="1">
          <mxGeometry width="50" height="50" relative="1" as="geometry">
            <mxPoint x="640" y="430" as="sourcePoint" />
            <mxPoint x="925" y="250" as="targetPoint" />
          </mxGeometry>
        </mxCell>
        <mxCell id="k4mGKkieQnS2HrGEvZ-L-28" value="&lt;b&gt;SELECT BUS FROM AVAILABLE BUSES&lt;/b&gt;" style="rounded=1;whiteSpace=wrap;html=1;fillColor=#fff2cc;strokeColor=#d6b656;gradientColor=#ffd966;shadow=1;" parent="WIyWlLk6GJQsqaUBKTNV-1" vertex="1">
          <mxGeometry x="340" y="470" width="350" height="60" as="geometry" />
        </mxCell>
        <mxCell id="k4mGKkieQnS2HrGEvZ-L-29" value="" style="ellipse;whiteSpace=wrap;html=1;aspect=fixed;fillColor=#ffcd28;strokeColor=#d79b00;gradientColor=#ffa500;shadow=1;" parent="WIyWlLk6GJQsqaUBKTNV-1" vertex="1">
          <mxGeometry x="280" y="460" width="80" height="80" as="geometry" />
        </mxCell>
        <mxCell id="k4mGKkieQnS2HrGEvZ-L-30" value="" style="endArrow=classic;html=1;rounded=0;exitX=0.525;exitY=1.009;exitDx=0;exitDy=0;entryX=0.5;entryY=0;entryDx=0;entryDy=0;exitPerimeter=0;shadow=1;strokeWidth=3;" parent="WIyWlLk6GJQsqaUBKTNV-1" source="k4mGKkieQnS2HrGEvZ-L-24" target="k4mGKkieQnS2HrGEvZ-L-28" edge="1">
          <mxGeometry width="50" height="50" relative="1" as="geometry">
            <mxPoint x="720" y="520" as="sourcePoint" />
            <mxPoint x="770" y="470" as="targetPoint" />
          </mxGeometry>
        </mxCell>
        <mxCell id="k4mGKkieQnS2HrGEvZ-L-35" style="edgeStyle=orthogonalEdgeStyle;rounded=0;orthogonalLoop=1;jettySize=auto;html=1;shadow=1;strokeWidth=3;" parent="WIyWlLk6GJQsqaUBKTNV-1" source="k4mGKkieQnS2HrGEvZ-L-31" target="k4mGKkieQnS2HrGEvZ-L-34" edge="1">
          <mxGeometry relative="1" as="geometry" />
        </mxCell>
        <mxCell id="k4mGKkieQnS2HrGEvZ-L-31" value="&lt;b&gt;PAYMENT&lt;/b&gt;" style="rounded=1;whiteSpace=wrap;html=1;fillColor=#fff2cc;strokeColor=#d6b656;gradientColor=#ffd966;shadow=1;" parent="WIyWlLk6GJQsqaUBKTNV-1" vertex="1">
          <mxGeometry x="340" y="640" width="350" height="60" as="geometry" />
        </mxCell>
        <mxCell id="k4mGKkieQnS2HrGEvZ-L-32" value="" style="ellipse;whiteSpace=wrap;html=1;aspect=fixed;fillColor=#ffcd28;strokeColor=#d79b00;gradientColor=#ffa500;shadow=1;" parent="WIyWlLk6GJQsqaUBKTNV-1" vertex="1">
          <mxGeometry x="290" y="630" width="80" height="80" as="geometry" />
        </mxCell>
        <mxCell id="k4mGKkieQnS2HrGEvZ-L-33" value="" style="endArrow=classic;html=1;rounded=0;entryX=0.5;entryY=0;entryDx=0;entryDy=0;exitX=0.5;exitY=1;exitDx=0;exitDy=0;shadow=1;strokeWidth=3;" parent="WIyWlLk6GJQsqaUBKTNV-1" source="k4mGKkieQnS2HrGEvZ-L-36" target="k4mGKkieQnS2HrGEvZ-L-31" edge="1">
          <mxGeometry width="50" height="50" relative="1" as="geometry">
            <mxPoint x="580" y="580" as="sourcePoint" />
            <mxPoint x="630" y="530" as="targetPoint" />
          </mxGeometry>
        </mxCell>
        <mxCell id="k4mGKkieQnS2HrGEvZ-L-71" style="edgeStyle=orthogonalEdgeStyle;rounded=0;orthogonalLoop=1;jettySize=auto;html=1;exitX=0.5;exitY=1;exitDx=0;exitDy=0;shadow=1;strokeWidth=3;" parent="WIyWlLk6GJQsqaUBKTNV-1" source="k4mGKkieQnS2HrGEvZ-L-34" edge="1">
          <mxGeometry relative="1" as="geometry">
            <mxPoint x="1340" y="1020.0000000000002" as="targetPoint" />
          </mxGeometry>
        </mxCell>
        <mxCell id="k4mGKkieQnS2HrGEvZ-L-34" value="&lt;b&gt;GENRATE TICKET&lt;/b&gt;" style="rounded=0;whiteSpace=wrap;html=1;fillColor=#fff2cc;strokeColor=#d6b656;gradientColor=#ffd966;shadow=1;" parent="WIyWlLk6GJQsqaUBKTNV-1" vertex="1">
          <mxGeometry x="402.5" y="760" width="225" height="60" as="geometry" />
        </mxCell>
        <mxCell id="k4mGKkieQnS2HrGEvZ-L-37" value="" style="endArrow=classic;html=1;rounded=0;entryX=0.5;entryY=0;entryDx=0;entryDy=0;exitX=0.5;exitY=1;exitDx=0;exitDy=0;shadow=1;strokeWidth=3;" parent="WIyWlLk6GJQsqaUBKTNV-1" source="k4mGKkieQnS2HrGEvZ-L-28" target="k4mGKkieQnS2HrGEvZ-L-36" edge="1">
          <mxGeometry width="50" height="50" relative="1" as="geometry">
            <mxPoint x="515" y="530" as="sourcePoint" />
            <mxPoint x="515" y="640" as="targetPoint" />
          </mxGeometry>
        </mxCell>
        <mxCell id="k4mGKkieQnS2HrGEvZ-L-38" style="edgeStyle=orthogonalEdgeStyle;rounded=0;orthogonalLoop=1;jettySize=auto;html=1;exitX=0;exitY=0.5;exitDx=0;exitDy=0;shadow=1;strokeWidth=3;" parent="WIyWlLk6GJQsqaUBKTNV-1" source="k4mGKkieQnS2HrGEvZ-L-36" edge="1">
          <mxGeometry relative="1" as="geometry">
            <mxPoint x="100" y="584" as="targetPoint" />
          </mxGeometry>
        </mxCell>
        <mxCell id="k4mGKkieQnS2HrGEvZ-L-36" value="" style="rhombus;whiteSpace=wrap;html=1;fillColor=#f5f5f5;gradientColor=#b3b3b3;strokeColor=#666666;shadow=1;" parent="WIyWlLk6GJQsqaUBKTNV-1" vertex="1">
          <mxGeometry x="495" y="564.5" width="40" height="40" as="geometry" />
        </mxCell>
        <mxCell id="k4mGKkieQnS2HrGEvZ-L-44" style="edgeStyle=orthogonalEdgeStyle;rounded=0;orthogonalLoop=1;jettySize=auto;html=1;entryX=0.5;entryY=0;entryDx=0;entryDy=0;shadow=1;strokeWidth=3;" parent="WIyWlLk6GJQsqaUBKTNV-1" source="k4mGKkieQnS2HrGEvZ-L-40" target="k4mGKkieQnS2HrGEvZ-L-41" edge="1">
          <mxGeometry relative="1" as="geometry" />
        </mxCell>
        <mxCell id="k4mGKkieQnS2HrGEvZ-L-40" value="&lt;b&gt;LOOK FOR PASSANGER RECORD&lt;/b&gt;" style="rounded=0;whiteSpace=wrap;html=1;fillColor=#fff2cc;strokeColor=#d6b656;gradientColor=#ffd966;shadow=1;" parent="WIyWlLk6GJQsqaUBKTNV-1" vertex="1">
          <mxGeometry x="765" y="300" width="320" height="60" as="geometry" />
        </mxCell>
        <mxCell id="k4mGKkieQnS2HrGEvZ-L-45" style="edgeStyle=orthogonalEdgeStyle;rounded=0;orthogonalLoop=1;jettySize=auto;html=1;exitX=0.5;exitY=1;exitDx=0;exitDy=0;entryX=0.5;entryY=0;entryDx=0;entryDy=0;shadow=1;strokeWidth=3;" parent="WIyWlLk6GJQsqaUBKTNV-1" source="k4mGKkieQnS2HrGEvZ-L-41" target="k4mGKkieQnS2HrGEvZ-L-42" edge="1">
          <mxGeometry relative="1" as="geometry" />
        </mxCell>
        <mxCell id="k4mGKkieQnS2HrGEvZ-L-41" value="&lt;b&gt;ENTER PASSANGER NAME&lt;/b&gt;" style="rounded=0;whiteSpace=wrap;html=1;fillColor=#fff2cc;strokeColor=#d6b656;gradientColor=#ffd966;shadow=1;" parent="WIyWlLk6GJQsqaUBKTNV-1" vertex="1">
          <mxGeometry x="765" y="430" width="320" height="60" as="geometry" />
        </mxCell>
        <mxCell id="k4mGKkieQnS2HrGEvZ-L-58" style="edgeStyle=orthogonalEdgeStyle;rounded=0;orthogonalLoop=1;jettySize=auto;html=1;entryX=0.5;entryY=0;entryDx=0;entryDy=0;shadow=1;strokeWidth=3;" parent="WIyWlLk6GJQsqaUBKTNV-1" source="k4mGKkieQnS2HrGEvZ-L-42" target="k4mGKkieQnS2HrGEvZ-L-57" edge="1">
          <mxGeometry relative="1" as="geometry" />
        </mxCell>
        <mxCell id="k4mGKkieQnS2HrGEvZ-L-42" value="&lt;b&gt;DISPLAY PASSANGER RECODE AND ACCOUNT STATUS&lt;/b&gt;" style="rounded=0;whiteSpace=wrap;html=1;fillColor=#fff2cc;strokeColor=#d6b656;gradientColor=#ffd966;shadow=1;" parent="WIyWlLk6GJQsqaUBKTNV-1" vertex="1">
          <mxGeometry x="765" y="555" width="320" height="60" as="geometry" />
        </mxCell>
        <mxCell id="k4mGKkieQnS2HrGEvZ-L-43" value="" style="endArrow=classic;html=1;rounded=0;shadow=1;strokeWidth=3;" parent="WIyWlLk6GJQsqaUBKTNV-1" target="k4mGKkieQnS2HrGEvZ-L-40" edge="1">
          <mxGeometry width="50" height="50" relative="1" as="geometry">
            <mxPoint x="925" y="260" as="sourcePoint" />
            <mxPoint x="1130" y="550" as="targetPoint" />
          </mxGeometry>
        </mxCell>
        <mxCell id="k4mGKkieQnS2HrGEvZ-L-61" style="edgeStyle=orthogonalEdgeStyle;rounded=0;orthogonalLoop=1;jettySize=auto;html=1;exitX=0.5;exitY=1;exitDx=0;exitDy=0;shadow=1;strokeWidth=3;" parent="WIyWlLk6GJQsqaUBKTNV-1" source="k4mGKkieQnS2HrGEvZ-L-47" target="k4mGKkieQnS2HrGEvZ-L-59" edge="1">
          <mxGeometry relative="1" as="geometry" />
        </mxCell>
        <mxCell id="k4mGKkieQnS2HrGEvZ-L-47" value="&lt;b&gt;CANCLE TICKET&lt;/b&gt;" style="rounded=1;whiteSpace=wrap;html=1;fillColor=#fff2cc;gradientColor=#ffd966;strokeColor=#d6b656;shadow=1;" parent="WIyWlLk6GJQsqaUBKTNV-1" vertex="1">
          <mxGeometry x="1810" y="300" width="350" height="60" as="geometry" />
        </mxCell>
        <mxCell id="k4mGKkieQnS2HrGEvZ-L-48" value="" style="ellipse;whiteSpace=wrap;html=1;aspect=fixed;fillColor=#ffcd28;gradientColor=#ffa500;strokeColor=#d79b00;shadow=1;" parent="WIyWlLk6GJQsqaUBKTNV-1" vertex="1">
          <mxGeometry x="1760" y="290" width="80" height="80" as="geometry" />
        </mxCell>
        <mxCell id="k4mGKkieQnS2HrGEvZ-L-53" style="edgeStyle=orthogonalEdgeStyle;rounded=0;orthogonalLoop=1;jettySize=auto;html=1;entryX=0.5;entryY=0;entryDx=0;entryDy=0;shadow=1;strokeWidth=3;" parent="WIyWlLk6GJQsqaUBKTNV-1" source="k4mGKkieQnS2HrGEvZ-L-49" target="k4mGKkieQnS2HrGEvZ-L-51" edge="1">
          <mxGeometry relative="1" as="geometry" />
        </mxCell>
        <mxCell id="k4mGKkieQnS2HrGEvZ-L-49" value="&lt;b&gt;UPDATE TICKET&lt;/b&gt;" style="rounded=1;whiteSpace=wrap;html=1;fillColor=#fff2cc;strokeColor=#d6b656;gradientColor=#ffd966;shadow=1;" parent="WIyWlLk6GJQsqaUBKTNV-1" vertex="1">
          <mxGeometry x="1230" y="300" width="350" height="60" as="geometry" />
        </mxCell>
        <mxCell id="k4mGKkieQnS2HrGEvZ-L-50" value="" style="ellipse;whiteSpace=wrap;html=1;aspect=fixed;fillColor=#ffcd28;strokeColor=#d79b00;gradientColor=#ffa500;shadow=1;" parent="WIyWlLk6GJQsqaUBKTNV-1" vertex="1">
          <mxGeometry x="1180" y="290" width="80" height="80" as="geometry" />
        </mxCell>
        <mxCell id="k4mGKkieQnS2HrGEvZ-L-54" style="edgeStyle=orthogonalEdgeStyle;rounded=0;orthogonalLoop=1;jettySize=auto;html=1;entryX=0.5;entryY=0;entryDx=0;entryDy=0;shadow=1;strokeWidth=3;" parent="WIyWlLk6GJQsqaUBKTNV-1" source="k4mGKkieQnS2HrGEvZ-L-51" target="k4mGKkieQnS2HrGEvZ-L-52" edge="1">
          <mxGeometry relative="1" as="geometry" />
        </mxCell>
        <mxCell id="k4mGKkieQnS2HrGEvZ-L-51" value="&lt;b&gt;PASSANGER&amp;nbsp; NAME UPDATE DETAILS&lt;/b&gt;" style="rounded=0;whiteSpace=wrap;html=1;fillColor=#fff2cc;strokeColor=#d6b656;gradientColor=#ffd966;shadow=1;" parent="WIyWlLk6GJQsqaUBKTNV-1" vertex="1">
          <mxGeometry x="1245" y="430" width="320" height="60" as="geometry" />
        </mxCell>
        <mxCell id="k4mGKkieQnS2HrGEvZ-L-68" style="edgeStyle=orthogonalEdgeStyle;rounded=0;orthogonalLoop=1;jettySize=auto;html=1;shadow=1;strokeWidth=3;" parent="WIyWlLk6GJQsqaUBKTNV-1" source="k4mGKkieQnS2HrGEvZ-L-52" edge="1">
          <mxGeometry relative="1" as="geometry">
            <mxPoint x="1405" y="1020" as="targetPoint" />
          </mxGeometry>
        </mxCell>
        <mxCell id="k4mGKkieQnS2HrGEvZ-L-52" value="&lt;b&gt;UPDATING&amp;nbsp; INFO&lt;/b&gt;" style="rounded=0;whiteSpace=wrap;html=1;fillColor=#fff2cc;strokeColor=#d6b656;gradientColor=#ffd966;shadow=1;" parent="WIyWlLk6GJQsqaUBKTNV-1" vertex="1">
          <mxGeometry x="1245" y="555" width="320" height="60" as="geometry" />
        </mxCell>
        <mxCell id="k4mGKkieQnS2HrGEvZ-L-56" value="" style="endArrow=classic;html=1;rounded=0;entryX=0.5;entryY=0;entryDx=0;entryDy=0;shadow=1;strokeWidth=3;" parent="WIyWlLk6GJQsqaUBKTNV-1" target="k4mGKkieQnS2HrGEvZ-L-49" edge="1">
          <mxGeometry width="50" height="50" relative="1" as="geometry">
            <mxPoint x="930" y="250" as="sourcePoint" />
            <mxPoint x="1290" y="520" as="targetPoint" />
            <Array as="points">
              <mxPoint x="1405" y="250" />
            </Array>
          </mxGeometry>
        </mxCell>
        <mxCell id="k4mGKkieQnS2HrGEvZ-L-69" style="edgeStyle=orthogonalEdgeStyle;rounded=0;orthogonalLoop=1;jettySize=auto;html=1;shadow=1;strokeWidth=3;" parent="WIyWlLk6GJQsqaUBKTNV-1" source="k4mGKkieQnS2HrGEvZ-L-57" edge="1">
          <mxGeometry relative="1" as="geometry">
            <mxPoint x="1370" y="1020" as="targetPoint" />
            <Array as="points">
              <mxPoint x="925" y="900" />
              <mxPoint x="1370" y="900" />
            </Array>
          </mxGeometry>
        </mxCell>
        <mxCell id="k4mGKkieQnS2HrGEvZ-L-57" value="&lt;b&gt;DISPLAY PASSANGER HISTORY RECODE AND ACCOUNT STATUS&lt;/b&gt;" style="rounded=0;whiteSpace=wrap;html=1;fillColor=#fff2cc;strokeColor=#d6b656;gradientColor=#ffd966;shadow=1;" parent="WIyWlLk6GJQsqaUBKTNV-1" vertex="1">
          <mxGeometry x="765" y="680" width="320" height="60" as="geometry" />
        </mxCell>
        <mxCell id="k4mGKkieQnS2HrGEvZ-L-62" style="edgeStyle=orthogonalEdgeStyle;rounded=0;orthogonalLoop=1;jettySize=auto;html=1;shadow=1;strokeWidth=3;" parent="WIyWlLk6GJQsqaUBKTNV-1" source="k4mGKkieQnS2HrGEvZ-L-59" edge="1">
          <mxGeometry relative="1" as="geometry">
            <mxPoint x="1985" y="550" as="targetPoint" />
          </mxGeometry>
        </mxCell>
        <mxCell id="k4mGKkieQnS2HrGEvZ-L-59" value="&lt;b&gt;PASSANGER&amp;nbsp; DETAILS&lt;/b&gt;" style="rounded=0;whiteSpace=wrap;html=1;fillColor=#fff2cc;gradientColor=#ffd966;strokeColor=#d6b656;shadow=1;" parent="WIyWlLk6GJQsqaUBKTNV-1" vertex="1">
          <mxGeometry x="1825" y="430" width="320" height="60" as="geometry" />
        </mxCell>
        <mxCell id="k4mGKkieQnS2HrGEvZ-L-66" style="edgeStyle=orthogonalEdgeStyle;rounded=0;orthogonalLoop=1;jettySize=auto;html=1;entryX=1;entryY=0.5;entryDx=0;entryDy=0;shadow=1;strokeWidth=3;" parent="WIyWlLk6GJQsqaUBKTNV-1" source="k4mGKkieQnS2HrGEvZ-L-60" target="k4mGKkieQnS2HrGEvZ-L-64" edge="1">
          <mxGeometry relative="1" as="geometry" />
        </mxCell>
        <mxCell id="k4mGKkieQnS2HrGEvZ-L-60" value="&lt;b&gt;PASSANGER&amp;nbsp; CANCELLATION&amp;nbsp;&lt;/b&gt;" style="rounded=0;whiteSpace=wrap;html=1;fillColor=#fff2cc;gradientColor=#ffd966;strokeColor=#d6b656;shadow=1;" parent="WIyWlLk6GJQsqaUBKTNV-1" vertex="1">
          <mxGeometry x="1825" y="555" width="320" height="60" as="geometry" />
        </mxCell>
        <mxCell id="k4mGKkieQnS2HrGEvZ-L-63" value="" style="endArrow=classic;html=1;rounded=0;entryX=0.5;entryY=0;entryDx=0;entryDy=0;shadow=1;strokeWidth=3;" parent="WIyWlLk6GJQsqaUBKTNV-1" target="k4mGKkieQnS2HrGEvZ-L-47" edge="1">
          <mxGeometry width="50" height="50" relative="1" as="geometry">
            <mxPoint x="1410" y="250" as="sourcePoint" />
            <mxPoint x="1760" y="470" as="targetPoint" />
            <Array as="points">
              <mxPoint x="1985" y="250" />
            </Array>
          </mxGeometry>
        </mxCell>
        <mxCell id="k4mGKkieQnS2HrGEvZ-L-64" value="&lt;b&gt;REFUND&lt;/b&gt;" style="rounded=1;whiteSpace=wrap;html=1;fillColor=#fff2cc;gradientColor=#ffd966;strokeColor=#d6b656;shadow=1;" parent="WIyWlLk6GJQsqaUBKTNV-1" vertex="1">
          <mxGeometry x="1704" y="870" width="240" height="60" as="geometry" />
        </mxCell>
        <mxCell id="k4mGKkieQnS2HrGEvZ-L-67" style="edgeStyle=orthogonalEdgeStyle;rounded=0;orthogonalLoop=1;jettySize=auto;html=1;exitX=0;exitY=0.5;exitDx=0;exitDy=0;shadow=1;strokeWidth=3;" parent="WIyWlLk6GJQsqaUBKTNV-1" source="k4mGKkieQnS2HrGEvZ-L-65" edge="1">
          <mxGeometry relative="1" as="geometry">
            <mxPoint x="1440" y="1020" as="targetPoint" />
            <Array as="points">
              <mxPoint x="1440" y="900" />
              <mxPoint x="1440" y="1020" />
            </Array>
          </mxGeometry>
        </mxCell>
        <mxCell id="k4mGKkieQnS2HrGEvZ-L-65" value="" style="ellipse;whiteSpace=wrap;html=1;aspect=fixed;fillColor=#ffcd28;gradientColor=#ffa500;strokeColor=#d79b00;shadow=1;" parent="WIyWlLk6GJQsqaUBKTNV-1" vertex="1">
          <mxGeometry x="1654" y="860" width="80" height="80" as="geometry" />
        </mxCell>
        <mxCell id="k4mGKkieQnS2HrGEvZ-L-74" style="edgeStyle=orthogonalEdgeStyle;rounded=0;orthogonalLoop=1;jettySize=auto;html=1;exitX=0;exitY=0.5;exitDx=0;exitDy=0;entryX=1;entryY=0.5;entryDx=0;entryDy=0;shadow=1;strokeWidth=3;" parent="WIyWlLk6GJQsqaUBKTNV-1" source="k4mGKkieQnS2HrGEvZ-L-72" target="k4mGKkieQnS2HrGEvZ-L-3" edge="1">
          <mxGeometry relative="1" as="geometry">
            <mxPoint x="154.8662971047792" y="1034.5882352941178" as="targetPoint" />
          </mxGeometry>
        </mxCell>
        <mxCell id="k4mGKkieQnS2HrGEvZ-L-72" value="" style="rounded=0;whiteSpace=wrap;html=1;fillColor=#dae8fc;gradientColor=#7ea6e0;strokeColor=#6c8ebf;shadow=1;" parent="WIyWlLk6GJQsqaUBKTNV-1" vertex="1">
          <mxGeometry x="1270" y="1030" width="270" height="10" as="geometry" />
        </mxCell>
        <mxCell id="k4mGKkieQnS2HrGEvZ-L-76" value="&lt;b&gt;HOME&lt;br&gt;PAGE&lt;/b&gt;" style="ellipse;whiteSpace=wrap;html=1;aspect=fixed;fillColor=#ffcd28;gradientColor=#ffa500;strokeColor=#d79b00;shadow=1;" parent="WIyWlLk6GJQsqaUBKTNV-1" vertex="1">
          <mxGeometry x="52.5" y="1100" width="95" height="95" as="geometry" />
        </mxCell>
        <mxCell id="k4mGKkieQnS2HrGEvZ-L-79" value="&lt;b&gt;YES&lt;/b&gt;" style="text;html=1;align=center;verticalAlign=middle;whiteSpace=wrap;rounded=0;shadow=1;" parent="WIyWlLk6GJQsqaUBKTNV-1" vertex="1">
          <mxGeometry x="930" y="200" width="60" height="30" as="geometry" />
        </mxCell>
        <mxCell id="k4mGKkieQnS2HrGEvZ-L-80" value="&lt;b&gt;NO&lt;/b&gt;" style="text;html=1;align=center;verticalAlign=middle;whiteSpace=wrap;rounded=0;shadow=1;" parent="WIyWlLk6GJQsqaUBKTNV-1" vertex="1">
          <mxGeometry x="495" y="140" width="60" height="30" as="geometry" />
        </mxCell>
        <mxCell id="k4mGKkieQnS2HrGEvZ-L-81" value="&lt;b&gt;YES&lt;/b&gt;" style="text;html=1;align=center;verticalAlign=middle;whiteSpace=wrap;rounded=0;shadow=1;" parent="WIyWlLk6GJQsqaUBKTNV-1" vertex="1">
          <mxGeometry x="515" y="604.5" width="60" height="30" as="geometry" />
        </mxCell>
        <mxCell id="k4mGKkieQnS2HrGEvZ-L-82" value="&lt;b&gt;NO&lt;/b&gt;" style="text;html=1;align=center;verticalAlign=middle;whiteSpace=wrap;rounded=0;shadow=1;" parent="WIyWlLk6GJQsqaUBKTNV-1" vertex="1">
          <mxGeometry x="340" y="555" width="60" height="30" as="geometry" />
        </mxCell>
        <mxCell id="k4mGKkieQnS2HrGEvZ-L-83" value="&lt;b&gt;&amp;nbsp; &amp;nbsp; &amp;nbsp; &amp;nbsp; &amp;nbsp; ENTER LOGIN CREDENTIAL&lt;/b&gt;" style="rounded=1;whiteSpace=wrap;html=1;fillColor=#fff2cc;gradientColor=#ffd966;strokeColor=#d6b656;shadow=1;" parent="WIyWlLk6GJQsqaUBKTNV-1" vertex="1">
          <mxGeometry x="120" y="1450" width="250" height="60" as="geometry" />
        </mxCell>
        <mxCell id="k4mGKkieQnS2HrGEvZ-L-84" value="&lt;b&gt;&amp;nbsp; &amp;nbsp; &amp;nbsp; &amp;nbsp; VERIFY&amp;nbsp; LOGIN CREDENTIAL&lt;/b&gt;" style="rounded=1;whiteSpace=wrap;html=1;fillColor=#fff2cc;gradientColor=#ffd966;strokeColor=#d6b656;shadow=1;" parent="WIyWlLk6GJQsqaUBKTNV-1" vertex="1">
          <mxGeometry x="830" y="1450" width="270" height="60" as="geometry" />
        </mxCell>
        <mxCell id="k4mGKkieQnS2HrGEvZ-L-85" style="edgeStyle=orthogonalEdgeStyle;rounded=0;orthogonalLoop=1;jettySize=auto;html=1;shadow=1;strokeWidth=3;" parent="WIyWlLk6GJQsqaUBKTNV-1" source="k4mGKkieQnS2HrGEvZ-L-86" edge="1">
          <mxGeometry relative="1" as="geometry">
            <mxPoint x="139.99999999999977" y="2510" as="targetPoint" />
          </mxGeometry>
        </mxCell>
        <mxCell id="k4mGKkieQnS2HrGEvZ-L-86" value="&lt;b&gt;LOGOUT&lt;/b&gt;" style="rounded=1;whiteSpace=wrap;html=1;fillColor=#d5e8d4;gradientColor=#97d077;strokeColor=#82b366;shadow=1;" parent="WIyWlLk6GJQsqaUBKTNV-1" vertex="1">
          <mxGeometry x="80" y="2415" width="120" height="60" as="geometry" />
        </mxCell>
        <mxCell id="k4mGKkieQnS2HrGEvZ-L-87" value="" style="rhombus;whiteSpace=wrap;html=1;fillColor=#f5f5f5;gradientColor=#b3b3b3;strokeColor=#666666;shadow=1;" parent="WIyWlLk6GJQsqaUBKTNV-1" vertex="1">
          <mxGeometry x="945" y="1560" width="40" height="40" as="geometry" />
        </mxCell>
        <mxCell id="k4mGKkieQnS2HrGEvZ-L-88" value="" style="ellipse;whiteSpace=wrap;html=1;aspect=fixed;fillColor=#ffcd28;gradientColor=#ffa500;strokeColor=#d79b00;shadow=1;" parent="WIyWlLk6GJQsqaUBKTNV-1" vertex="1">
          <mxGeometry x="787" y="1440" width="80" height="80" as="geometry" />
        </mxCell>
        <mxCell id="k4mGKkieQnS2HrGEvZ-L-89" value="" style="ellipse;whiteSpace=wrap;html=1;aspect=fixed;fillColor=#ffcd28;gradientColor=#ffa500;strokeColor=#d79b00;shadow=1;" parent="WIyWlLk6GJQsqaUBKTNV-1" vertex="1">
          <mxGeometry x="80" y="1440" width="80" height="80" as="geometry" />
        </mxCell>
        <mxCell id="k4mGKkieQnS2HrGEvZ-L-90" value="" style="endArrow=classic;html=1;rounded=0;exitX=1;exitY=0.5;exitDx=0;exitDy=0;entryX=0;entryY=0.5;entryDx=0;entryDy=0;shadow=1;strokeWidth=3;" parent="WIyWlLk6GJQsqaUBKTNV-1" source="k4mGKkieQnS2HrGEvZ-L-83" target="k4mGKkieQnS2HrGEvZ-L-88" edge="1">
          <mxGeometry width="50" height="50" relative="1" as="geometry">
            <mxPoint x="470" y="1730" as="sourcePoint" />
            <mxPoint x="520" y="1680" as="targetPoint" />
          </mxGeometry>
        </mxCell>
        <mxCell id="k4mGKkieQnS2HrGEvZ-L-91" value="" style="endArrow=classic;html=1;rounded=0;exitX=0.5;exitY=1;exitDx=0;exitDy=0;entryX=0.5;entryY=0;entryDx=0;entryDy=0;shadow=1;strokeWidth=3;" parent="WIyWlLk6GJQsqaUBKTNV-1" source="k4mGKkieQnS2HrGEvZ-L-84" target="k4mGKkieQnS2HrGEvZ-L-87" edge="1">
          <mxGeometry width="50" height="50" relative="1" as="geometry">
            <mxPoint x="650" y="1710" as="sourcePoint" />
            <mxPoint x="700" y="1660" as="targetPoint" />
          </mxGeometry>
        </mxCell>
        <mxCell id="k4mGKkieQnS2HrGEvZ-L-92" value="" style="endArrow=classic;html=1;rounded=0;exitX=0;exitY=0.5;exitDx=0;exitDy=0;entryX=0.5;entryY=0;entryDx=0;entryDy=0;shadow=1;strokeWidth=3;" parent="WIyWlLk6GJQsqaUBKTNV-1" source="k4mGKkieQnS2HrGEvZ-L-87" target="k4mGKkieQnS2HrGEvZ-L-86" edge="1">
          <mxGeometry width="50" height="50" relative="1" as="geometry">
            <mxPoint x="650" y="1710" as="sourcePoint" />
            <mxPoint x="700" y="1660" as="targetPoint" />
            <Array as="points">
              <mxPoint x="140" y="1580" />
            </Array>
          </mxGeometry>
        </mxCell>
        <mxCell id="k4mGKkieQnS2HrGEvZ-L-93" value="&lt;b&gt;ENTER SOURSE, DESTINATION, AND&amp;nbsp;&lt;/b&gt;&lt;div&gt;&lt;b&gt;TIME OF&lt;/b&gt;&lt;b style=&quot;background-color: initial;&quot;&gt;&amp;nbsp;BUSES&amp;nbsp;&lt;/b&gt;&lt;/div&gt;" style="rounded=1;whiteSpace=wrap;html=1;fillColor=#fff2cc;gradientColor=#ffd966;strokeColor=#d6b656;shadow=1;" parent="WIyWlLk6GJQsqaUBKTNV-1" vertex="1">
          <mxGeometry x="370" y="1710" width="350" height="60" as="geometry" />
        </mxCell>
        <mxCell id="k4mGKkieQnS2HrGEvZ-L-94" value="" style="ellipse;whiteSpace=wrap;html=1;aspect=fixed;fillColor=#ffcd28;gradientColor=#ffa500;strokeColor=#d79b00;shadow=1;" parent="WIyWlLk6GJQsqaUBKTNV-1" vertex="1">
          <mxGeometry x="320" y="1700" width="80" height="80" as="geometry" />
        </mxCell>
        <mxCell id="k4mGKkieQnS2HrGEvZ-L-95" value="" style="endArrow=classic;html=1;rounded=0;entryX=0.516;entryY=-0.001;entryDx=0;entryDy=0;entryPerimeter=0;shadow=1;strokeWidth=3;" parent="WIyWlLk6GJQsqaUBKTNV-1" target="k4mGKkieQnS2HrGEvZ-L-93" edge="1">
          <mxGeometry width="50" height="50" relative="1" as="geometry">
            <mxPoint x="960" y="1660" as="sourcePoint" />
            <mxPoint x="550" y="1710" as="targetPoint" />
            <Array as="points">
              <mxPoint x="550" y="1660" />
            </Array>
          </mxGeometry>
        </mxCell>
        <mxCell id="k4mGKkieQnS2HrGEvZ-L-96" value="" style="endArrow=classic;html=1;rounded=0;exitX=0.5;exitY=1;exitDx=0;exitDy=0;shadow=1;strokeWidth=3;" parent="WIyWlLk6GJQsqaUBKTNV-1" source="k4mGKkieQnS2HrGEvZ-L-87" edge="1">
          <mxGeometry width="50" height="50" relative="1" as="geometry">
            <mxPoint x="680" y="1840" as="sourcePoint" />
            <mxPoint x="965" y="1660" as="targetPoint" />
          </mxGeometry>
        </mxCell>
        <mxCell id="k4mGKkieQnS2HrGEvZ-L-97" value="&lt;b&gt;SELECT BUS FROM AVAILABLE BUSES&lt;/b&gt;" style="rounded=1;whiteSpace=wrap;html=1;fillColor=#fff2cc;gradientColor=#ffd966;strokeColor=#d6b656;shadow=1;" parent="WIyWlLk6GJQsqaUBKTNV-1" vertex="1">
          <mxGeometry x="380" y="1880" width="350" height="60" as="geometry" />
        </mxCell>
        <mxCell id="k4mGKkieQnS2HrGEvZ-L-98" value="" style="ellipse;whiteSpace=wrap;html=1;aspect=fixed;fillColor=#ffcd28;gradientColor=#ffa500;strokeColor=#d79b00;shadow=1;" parent="WIyWlLk6GJQsqaUBKTNV-1" vertex="1">
          <mxGeometry x="320" y="1870" width="80" height="80" as="geometry" />
        </mxCell>
        <mxCell id="k4mGKkieQnS2HrGEvZ-L-99" value="" style="endArrow=classic;html=1;rounded=0;exitX=0.525;exitY=1.009;exitDx=0;exitDy=0;entryX=0.5;entryY=0;entryDx=0;entryDy=0;exitPerimeter=0;shadow=1;strokeWidth=3;" parent="WIyWlLk6GJQsqaUBKTNV-1" source="k4mGKkieQnS2HrGEvZ-L-93" target="k4mGKkieQnS2HrGEvZ-L-97" edge="1">
          <mxGeometry width="50" height="50" relative="1" as="geometry">
            <mxPoint x="760" y="1930" as="sourcePoint" />
            <mxPoint x="810" y="1880" as="targetPoint" />
          </mxGeometry>
        </mxCell>
        <mxCell id="k4mGKkieQnS2HrGEvZ-L-101" value="&lt;b&gt;GENERATE TICKETS&lt;/b&gt;" style="rounded=1;whiteSpace=wrap;html=1;fillColor=#fff2cc;gradientColor=#ffd966;strokeColor=#d6b656;shadow=1;" parent="WIyWlLk6GJQsqaUBKTNV-1" vertex="1">
          <mxGeometry x="380" y="2050" width="350" height="60" as="geometry" />
        </mxCell>
        <mxCell id="k4mGKkieQnS2HrGEvZ-L-102" value="" style="ellipse;whiteSpace=wrap;html=1;aspect=fixed;fillColor=#ffcd28;gradientColor=#ffa500;strokeColor=#d79b00;shadow=1;" parent="WIyWlLk6GJQsqaUBKTNV-1" vertex="1">
          <mxGeometry x="330" y="2040" width="80" height="80" as="geometry" />
        </mxCell>
        <mxCell id="k4mGKkieQnS2HrGEvZ-L-104" style="edgeStyle=orthogonalEdgeStyle;rounded=0;orthogonalLoop=1;jettySize=auto;html=1;exitX=0.5;exitY=1;exitDx=0;exitDy=0;entryX=0.259;entryY=0;entryDx=0;entryDy=0;entryPerimeter=0;shadow=1;strokeWidth=3;" parent="WIyWlLk6GJQsqaUBKTNV-1" source="k4mGKkieQnS2HrGEvZ-L-101" target="k4mGKkieQnS2HrGEvZ-L-138" edge="1">
          <mxGeometry relative="1" as="geometry">
            <mxPoint x="1380" y="2430" as="targetPoint" />
            <mxPoint x="555" y="2230" as="sourcePoint" />
          </mxGeometry>
        </mxCell>
        <mxCell id="k4mGKkieQnS2HrGEvZ-L-106" value="" style="endArrow=classic;html=1;rounded=0;entryX=0.5;entryY=0;entryDx=0;entryDy=0;exitX=0.5;exitY=1;exitDx=0;exitDy=0;shadow=1;strokeWidth=3;" parent="WIyWlLk6GJQsqaUBKTNV-1" source="k4mGKkieQnS2HrGEvZ-L-97" target="k4mGKkieQnS2HrGEvZ-L-101" edge="1">
          <mxGeometry width="50" height="50" relative="1" as="geometry">
            <mxPoint x="555" y="1940" as="sourcePoint" />
            <mxPoint x="555" y="1974.5" as="targetPoint" />
          </mxGeometry>
        </mxCell>
        <mxCell id="k4mGKkieQnS2HrGEvZ-L-109" style="edgeStyle=orthogonalEdgeStyle;rounded=0;orthogonalLoop=1;jettySize=auto;html=1;entryX=0.5;entryY=0;entryDx=0;entryDy=0;shadow=1;strokeWidth=3;" parent="WIyWlLk6GJQsqaUBKTNV-1" source="k4mGKkieQnS2HrGEvZ-L-110" target="k4mGKkieQnS2HrGEvZ-L-112" edge="1">
          <mxGeometry relative="1" as="geometry" />
        </mxCell>
        <mxCell id="k4mGKkieQnS2HrGEvZ-L-110" value="&lt;b&gt;LOOK FOR BUSES RECORD&lt;/b&gt;" style="rounded=0;whiteSpace=wrap;html=1;fillColor=#fff2cc;gradientColor=#ffd966;strokeColor=#d6b656;shadow=1;" parent="WIyWlLk6GJQsqaUBKTNV-1" vertex="1">
          <mxGeometry x="805" y="1710" width="320" height="60" as="geometry" />
        </mxCell>
        <mxCell id="k4mGKkieQnS2HrGEvZ-L-111" style="edgeStyle=orthogonalEdgeStyle;rounded=0;orthogonalLoop=1;jettySize=auto;html=1;exitX=0.5;exitY=1;exitDx=0;exitDy=0;entryX=0.5;entryY=0;entryDx=0;entryDy=0;shadow=1;strokeWidth=3;" parent="WIyWlLk6GJQsqaUBKTNV-1" source="k4mGKkieQnS2HrGEvZ-L-112" target="k4mGKkieQnS2HrGEvZ-L-114" edge="1">
          <mxGeometry relative="1" as="geometry" />
        </mxCell>
        <mxCell id="k4mGKkieQnS2HrGEvZ-L-112" value="&lt;b&gt;ENTER BUS NUMBER&lt;/b&gt;" style="rounded=0;whiteSpace=wrap;html=1;fillColor=#fff2cc;gradientColor=#ffd966;strokeColor=#d6b656;shadow=1;" parent="WIyWlLk6GJQsqaUBKTNV-1" vertex="1">
          <mxGeometry x="805" y="1840" width="320" height="60" as="geometry" />
        </mxCell>
        <mxCell id="k4mGKkieQnS2HrGEvZ-L-114" value="&lt;b&gt;DISPLAY BUS RECODE AND STATUS&lt;/b&gt;" style="rounded=0;whiteSpace=wrap;html=1;fillColor=#fff2cc;gradientColor=#ffd966;strokeColor=#d6b656;shadow=1;" parent="WIyWlLk6GJQsqaUBKTNV-1" vertex="1">
          <mxGeometry x="805" y="1965" width="320" height="60" as="geometry" />
        </mxCell>
        <mxCell id="k4mGKkieQnS2HrGEvZ-L-115" value="" style="endArrow=classic;html=1;rounded=0;shadow=1;" parent="WIyWlLk6GJQsqaUBKTNV-1" target="k4mGKkieQnS2HrGEvZ-L-110" edge="1">
          <mxGeometry width="50" height="50" relative="1" as="geometry">
            <mxPoint x="965" y="1670" as="sourcePoint" />
            <mxPoint x="1170" y="1960" as="targetPoint" />
          </mxGeometry>
        </mxCell>
        <mxCell id="k4mGKkieQnS2HrGEvZ-L-116" style="edgeStyle=orthogonalEdgeStyle;rounded=0;orthogonalLoop=1;jettySize=auto;html=1;exitX=0.5;exitY=1;exitDx=0;exitDy=0;shadow=1;strokeWidth=3;" parent="WIyWlLk6GJQsqaUBKTNV-1" source="k4mGKkieQnS2HrGEvZ-L-117" target="k4mGKkieQnS2HrGEvZ-L-130" edge="1">
          <mxGeometry relative="1" as="geometry" />
        </mxCell>
        <mxCell id="k4mGKkieQnS2HrGEvZ-L-117" value="&lt;b&gt;REMOVE BUS&lt;/b&gt;" style="rounded=1;whiteSpace=wrap;html=1;fillColor=#fff2cc;gradientColor=#ffd966;strokeColor=#d6b656;shadow=1;" parent="WIyWlLk6GJQsqaUBKTNV-1" vertex="1">
          <mxGeometry x="1850" y="1710" width="350" height="60" as="geometry" />
        </mxCell>
        <mxCell id="k4mGKkieQnS2HrGEvZ-L-118" value="" style="ellipse;whiteSpace=wrap;html=1;aspect=fixed;fillColor=#ffcd28;gradientColor=#ffa500;strokeColor=#d79b00;shadow=1;" parent="WIyWlLk6GJQsqaUBKTNV-1" vertex="1">
          <mxGeometry x="1800" y="1700" width="80" height="80" as="geometry" />
        </mxCell>
        <mxCell id="k4mGKkieQnS2HrGEvZ-L-119" style="edgeStyle=orthogonalEdgeStyle;rounded=0;orthogonalLoop=1;jettySize=auto;html=1;entryX=0.5;entryY=0;entryDx=0;entryDy=0;shadow=1;strokeWidth=3;" parent="WIyWlLk6GJQsqaUBKTNV-1" source="k4mGKkieQnS2HrGEvZ-L-120" target="k4mGKkieQnS2HrGEvZ-L-123" edge="1">
          <mxGeometry relative="1" as="geometry" />
        </mxCell>
        <mxCell id="k4mGKkieQnS2HrGEvZ-L-120" value="&lt;b&gt;UPDATE BUS&lt;/b&gt;" style="rounded=1;whiteSpace=wrap;html=1;fillColor=#fff2cc;gradientColor=#ffd966;strokeColor=#d6b656;shadow=1;" parent="WIyWlLk6GJQsqaUBKTNV-1" vertex="1">
          <mxGeometry x="1270" y="1710" width="350" height="60" as="geometry" />
        </mxCell>
        <mxCell id="k4mGKkieQnS2HrGEvZ-L-121" value="" style="ellipse;whiteSpace=wrap;html=1;aspect=fixed;fillColor=#ffcd28;gradientColor=#ffa500;strokeColor=#d79b00;shadow=1;" parent="WIyWlLk6GJQsqaUBKTNV-1" vertex="1">
          <mxGeometry x="1220" y="1700" width="80" height="80" as="geometry" />
        </mxCell>
        <mxCell id="k4mGKkieQnS2HrGEvZ-L-122" style="edgeStyle=orthogonalEdgeStyle;rounded=0;orthogonalLoop=1;jettySize=auto;html=1;entryX=0.5;entryY=0;entryDx=0;entryDy=0;shadow=1;strokeWidth=3;" parent="WIyWlLk6GJQsqaUBKTNV-1" source="k4mGKkieQnS2HrGEvZ-L-123" target="k4mGKkieQnS2HrGEvZ-L-125" edge="1">
          <mxGeometry relative="1" as="geometry" />
        </mxCell>
        <mxCell id="k4mGKkieQnS2HrGEvZ-L-123" value="&lt;b&gt;BUS&amp;nbsp; NUMBER UPDATE DETAILS&lt;/b&gt;" style="rounded=0;whiteSpace=wrap;html=1;fillColor=#fff2cc;gradientColor=#ffd966;strokeColor=#d6b656;shadow=1;" parent="WIyWlLk6GJQsqaUBKTNV-1" vertex="1">
          <mxGeometry x="1285" y="1840" width="320" height="60" as="geometry" />
        </mxCell>
        <mxCell id="k4mGKkieQnS2HrGEvZ-L-124" style="edgeStyle=orthogonalEdgeStyle;rounded=0;orthogonalLoop=1;jettySize=auto;html=1;entryX=0.5;entryY=0;entryDx=0;entryDy=0;entryPerimeter=0;shadow=1;strokeWidth=3;" parent="WIyWlLk6GJQsqaUBKTNV-1" source="k4mGKkieQnS2HrGEvZ-L-125" target="k4mGKkieQnS2HrGEvZ-L-138" edge="1">
          <mxGeometry relative="1" as="geometry">
            <mxPoint x="1445" y="2430" as="targetPoint" />
          </mxGeometry>
        </mxCell>
        <mxCell id="k4mGKkieQnS2HrGEvZ-L-125" value="&lt;b&gt;UPDATING&amp;nbsp; INFO&lt;/b&gt;" style="rounded=0;whiteSpace=wrap;html=1;fillColor=#fff2cc;gradientColor=#ffd966;strokeColor=#d6b656;shadow=1;" parent="WIyWlLk6GJQsqaUBKTNV-1" vertex="1">
          <mxGeometry x="1285" y="1965" width="320" height="60" as="geometry" />
        </mxCell>
        <mxCell id="k4mGKkieQnS2HrGEvZ-L-126" value="" style="endArrow=classic;html=1;rounded=0;entryX=0.5;entryY=0;entryDx=0;entryDy=0;shadow=1;strokeWidth=3;" parent="WIyWlLk6GJQsqaUBKTNV-1" target="k4mGKkieQnS2HrGEvZ-L-120" edge="1">
          <mxGeometry width="50" height="50" relative="1" as="geometry">
            <mxPoint x="970" y="1660" as="sourcePoint" />
            <mxPoint x="1330" y="1930" as="targetPoint" />
            <Array as="points">
              <mxPoint x="1445" y="1660" />
            </Array>
          </mxGeometry>
        </mxCell>
        <mxCell id="k4mGKkieQnS2HrGEvZ-L-127" style="edgeStyle=orthogonalEdgeStyle;rounded=0;orthogonalLoop=1;jettySize=auto;html=1;shadow=1;strokeWidth=3;" parent="WIyWlLk6GJQsqaUBKTNV-1" edge="1">
          <mxGeometry relative="1" as="geometry">
            <mxPoint x="1410" y="2440" as="targetPoint" />
            <Array as="points">
              <mxPoint x="965" y="2200" />
              <mxPoint x="1410" y="2200" />
            </Array>
            <mxPoint x="965" y="2030" as="sourcePoint" />
          </mxGeometry>
        </mxCell>
        <mxCell id="k4mGKkieQnS2HrGEvZ-L-129" style="edgeStyle=orthogonalEdgeStyle;rounded=0;orthogonalLoop=1;jettySize=auto;html=1;shadow=1;strokeWidth=3;" parent="WIyWlLk6GJQsqaUBKTNV-1" source="k4mGKkieQnS2HrGEvZ-L-130" edge="1">
          <mxGeometry relative="1" as="geometry">
            <mxPoint x="2025" y="1960" as="targetPoint" />
          </mxGeometry>
        </mxCell>
        <mxCell id="k4mGKkieQnS2HrGEvZ-L-130" value="&lt;b&gt;BUS NUMBER&lt;/b&gt;" style="rounded=0;whiteSpace=wrap;html=1;fillColor=#fff2cc;gradientColor=#ffd966;strokeColor=#d6b656;shadow=1;" parent="WIyWlLk6GJQsqaUBKTNV-1" vertex="1">
          <mxGeometry x="1865" y="1840" width="320" height="60" as="geometry" />
        </mxCell>
        <mxCell id="k4mGKkieQnS2HrGEvZ-L-131" style="edgeStyle=orthogonalEdgeStyle;rounded=0;orthogonalLoop=1;jettySize=auto;html=1;entryX=0.702;entryY=-0.118;entryDx=0;entryDy=0;entryPerimeter=0;shadow=1;strokeWidth=3;" parent="WIyWlLk6GJQsqaUBKTNV-1" source="k4mGKkieQnS2HrGEvZ-L-132" target="k4mGKkieQnS2HrGEvZ-L-138" edge="1">
          <mxGeometry relative="1" as="geometry">
            <mxPoint x="1520" y="2370" as="targetPoint" />
            <Array as="points">
              <mxPoint x="2025" y="2204" />
              <mxPoint x="1500" y="2204" />
            </Array>
          </mxGeometry>
        </mxCell>
        <mxCell id="k4mGKkieQnS2HrGEvZ-L-132" value="&lt;b&gt;REMOVING BUS&lt;/b&gt;" style="rounded=0;whiteSpace=wrap;html=1;fillColor=#fff2cc;gradientColor=#ffd966;strokeColor=#d6b656;shadow=1;" parent="WIyWlLk6GJQsqaUBKTNV-1" vertex="1">
          <mxGeometry x="1865" y="1965" width="320" height="60" as="geometry" />
        </mxCell>
        <mxCell id="k4mGKkieQnS2HrGEvZ-L-133" value="" style="endArrow=classic;html=1;rounded=0;entryX=0.5;entryY=0;entryDx=0;entryDy=0;shadow=1;strokeWidth=3;" parent="WIyWlLk6GJQsqaUBKTNV-1" target="k4mGKkieQnS2HrGEvZ-L-117" edge="1">
          <mxGeometry width="50" height="50" relative="1" as="geometry">
            <mxPoint x="1450" y="1660" as="sourcePoint" />
            <mxPoint x="1800" y="1880" as="targetPoint" />
            <Array as="points">
              <mxPoint x="2025" y="1660" />
            </Array>
          </mxGeometry>
        </mxCell>
        <mxCell id="k4mGKkieQnS2HrGEvZ-L-137" style="edgeStyle=orthogonalEdgeStyle;rounded=0;orthogonalLoop=1;jettySize=auto;html=1;exitX=0;exitY=0.5;exitDx=0;exitDy=0;entryX=1;entryY=0.5;entryDx=0;entryDy=0;shadow=1;strokeWidth=3;" parent="WIyWlLk6GJQsqaUBKTNV-1" source="k4mGKkieQnS2HrGEvZ-L-138" target="k4mGKkieQnS2HrGEvZ-L-86" edge="1">
          <mxGeometry relative="1" as="geometry">
            <mxPoint x="194.8662971047792" y="2444.588235294118" as="targetPoint" />
          </mxGeometry>
        </mxCell>
        <mxCell id="k4mGKkieQnS2HrGEvZ-L-138" value="" style="rounded=0;whiteSpace=wrap;html=1;fillColor=#dae8fc;gradientColor=#7ea6e0;strokeColor=#6c8ebf;shadow=1;" parent="WIyWlLk6GJQsqaUBKTNV-1" vertex="1">
          <mxGeometry x="1310" y="2440" width="270" height="10" as="geometry" />
        </mxCell>
        <mxCell id="k4mGKkieQnS2HrGEvZ-L-139" value="&lt;b&gt;HOME&lt;br&gt;PAGE&lt;/b&gt;" style="ellipse;whiteSpace=wrap;html=1;aspect=fixed;fillColor=#ffcd28;gradientColor=#ffa500;strokeColor=#d79b00;shadow=1;" parent="WIyWlLk6GJQsqaUBKTNV-1" vertex="1">
          <mxGeometry x="92.5" y="2510" width="95" height="95" as="geometry" />
        </mxCell>
        <mxCell id="k4mGKkieQnS2HrGEvZ-L-140" value="&lt;b&gt;YES&lt;/b&gt;" style="text;html=1;align=center;verticalAlign=middle;whiteSpace=wrap;rounded=0;shadow=1;" parent="WIyWlLk6GJQsqaUBKTNV-1" vertex="1">
          <mxGeometry x="970" y="1610" width="60" height="30" as="geometry" />
        </mxCell>
        <mxCell id="k4mGKkieQnS2HrGEvZ-L-141" value="&lt;b&gt;NO&lt;/b&gt;" style="text;html=1;align=center;verticalAlign=middle;whiteSpace=wrap;rounded=0;shadow=1;" parent="WIyWlLk6GJQsqaUBKTNV-1" vertex="1">
          <mxGeometry x="535" y="1550" width="60" height="30" as="geometry" />
        </mxCell>
        <mxCell id="k4mGKkieQnS2HrGEvZ-L-145" value="OPERATOR&amp;nbsp;" style="shape=umlActor;verticalLabelPosition=bottom;verticalAlign=top;html=1;outlineConnect=0;strokeWidth=3;shadow=1;" parent="WIyWlLk6GJQsqaUBKTNV-1" vertex="1">
          <mxGeometry x="11" y="1380" width="30" height="60" as="geometry" />
        </mxCell>
        <mxCell id="k4mGKkieQnS2HrGEvZ-L-146" value="&lt;b&gt;USER&lt;/b&gt;" style="shape=umlActor;verticalLabelPosition=bottom;verticalAlign=top;html=1;outlineConnect=0;strokeWidth=3;shadow=1;" parent="WIyWlLk6GJQsqaUBKTNV-1" vertex="1">
          <mxGeometry x="11" y="-60" width="30" height="60" as="geometry" />
        </mxCell>
      </root>
    </mxGraphModel>
  </diagram>
</mxfile>
